HIERARCHY
ROOT Hips
{
	OFFSET 0.00 0.00 0.00
	CHANNELS 6 Xposition Yposition Zposition Xrotation Yrotation Zrotation
	JOINT Spine
	{
		OFFSET 0.00000 1.15266 1.72900
		CHANNELS 3 Xrotation Yrotation Zrotation
		JOINT Spine1
		{
			OFFSET 0.00000 0.40032 2.27031
			CHANNELS 3 Xrotation Yrotation Zrotation
			JOINT Spine2
			{
				OFFSET 0.00000 0.20092 2.29656
				CHANNELS 3 Xrotation Yrotation Zrotation
				JOINT Spine3
				{
					OFFSET 0.00000 0.00000 2.30533
					CHANNELS 3 Xrotation Yrotation Zrotation
					JOINT Neck
					{
						OFFSET 0.00000 -0.86449 6.05149
						CHANNELS 3 Xrotation Yrotation Zrotation
						JOINT Head
						{
							OFFSET 0.00000 -0.55043 3.12167
							CHANNELS 3 Xrotation Yrotation Zrotation
							End Site
							{
								OFFSET 0.00000 0.00000 3.73175
							}
						}
					}
					JOINT RightShoulder
					{
						OFFSET -0.78828 -1.31380 4.25672
						CHANNELS 3 Xrotation Yrotation Zrotation
						JOINT RightArm
						{
							OFFSET -3.91513 0.00000 0.00000
							CHANNELS 3 Xrotation Yrotation Zrotation
							JOINT RightForeArm
							{
								OFFSET -6.91491 0.00000 0.00000
								CHANNELS 3 Xrotation Yrotation Zrotation
								JOINT RightHand
								{
									OFFSET -6.09622 0.00000 0.00000
									CHANNELS 3 Xrotation Yrotation Zrotation
									JOINT RightHandEnd
									{
										OFFSET -1.74995 0.00000 0.00000
										CHANNELS 3 Xrotation Yrotation Zrotation
										End Site
										{
											OFFSET -1.74995 0.00000 0.00000
										}
									}
									JOINT RightHandThumb1
									{
										OFFSET -0.69998 -1.16663 -0.46665
										CHANNELS 3 Yrotation Xrotation Zrotation
										End Site
										{
											OFFSET -1.69032 -0.45292 0.00000
										}
									}
								}
							}
						}
					}
					JOINT LeftShoulder
					{
						OFFSET 0.78828 -1.31380 4.25672
						CHANNELS 3 Xrotation Yrotation Zrotation
						JOINT LeftArm
						{
							OFFSET 3.91513 0.00000 0.00000
							CHANNELS 3 Xrotation Yrotation Zrotation
							JOINT LeftForeArm
							{
								OFFSET 6.91491 0.00000 0.00000
								CHANNELS 3 Xrotation Yrotation Zrotation
								JOINT LeftHand
								{
									OFFSET 6.09622 0.00000 0.00000
									CHANNELS 3 Xrotation Yrotation Zrotation
									JOINT LeftHandEnd
									{
										OFFSET 1.74995 0.00000 0.00000
										CHANNELS 3 Xrotation Yrotation Zrotation
										End Site
										{
											OFFSET 1.74995 0.00000 0.00000
										}
									}
									JOINT LeftHandThumb1
									{
										OFFSET 0.69998 -1.16663 -0.46665
										CHANNELS 3 Yrotation Xrotation Zrotation
										End Site
										{
											OFFSET 1.69032 -0.45292 0.00000
										}
									}
								}
							}
						}
					}
				}
			}
		}
	}
	JOINT RightUpLeg
	{
		OFFSET -2.33857 0.00000 -0.68318
		CHANNELS 3 Xrotation Yrotation Zrotation
		JOINT RightLeg
		{
			OFFSET 0.00000 0.00000 -10.74496
			CHANNELS 3 Xrotation Yrotation Zrotation
			JOINT RightFoot
			{
				OFFSET 0.00000 0.00000 -10.93085
				CHANNELS 3 Xrotation Yrotation Zrotation
				JOINT RightToeBase
				{
					OFFSET 0.00000 -4.08727 -1.48765
					CHANNELS 3 Xrotation Yrotation Zrotation
					End Site
					{
						OFFSET 0.00000 -1.89187 -0.00000
					}
				}
			}
		}
	}
	JOINT LeftUpLeg
	{
		OFFSET 2.33857 0.00000 -0.68318
		CHANNELS 3 Xrotation Yrotation Zrotation
		JOINT LeftLeg
		{
			OFFSET 0.00000 0.00000 -10.74496
			CHANNELS 3 Xrotation Yrotation Zrotation
			JOINT LeftFoot
			{
				OFFSET 0.00000 0.00000 -10.93085
				CHANNELS 3 Xrotation Yrotation Zrotation
				JOINT LeftToeBase
				{
					OFFSET 0.00000 -4.08727 -1.48765
					CHANNELS 3 Xrotation Yrotation Zrotation
					End Site
					{
						OFFSET 0.00000 -1.89187 -0.00000
					}
				}
			}
		}
	}
}
MOTION
Frames: 7
Frame Time: 0.008342
 23.5526 -6.2308 24.2398 -6.4084 -4.6599 -65.2103 2.2473 8.6424 -1.2471 -0.6194 2.3505 0.5140 10.7589 1.9828 2.4281 1.8402 -2.7720 0.7541 -3.1875 -10.4975 -4.0774 13.7818 -2.9769 -6.9156 8.2566 7.3127 -7.8163 -6.5698 -0.9829 60.3962 -0.0001 0.0001 108.6362 39.7446 -13.4186 -16.7950 -0.0000 -0.0000 -0.0000 0.0000 -0.0000 -0.0000 17.9433 -5.6350 3.4780 -21.3748 -9.3358 -57.9743 -0.0001 -0.0001 -94.2561 -5.2087 -7.6498 9.4680 0.0000 -0.0000 0.0000 0.0000 -0.0000 0.0000 -38.4777 6.0575 0.7722 69.8069 0.0000 0.0000 -1.9453 3.6157 -15.9395 -2.4056 0.0000 -0.0000 -16.4110 2.2626 13.0480 22.9934 0.0000 0.0000 -9.1754 -0.1907 3.8050 -4.3881 0.0000 -0.0000
 23.4230 -6.3837 24.2550 -6.4938 -4.6124 -65.4183 2.3645 8.7548 -1.3006 -0.5909 2.3533 0.5093 10.6699 1.8426 2.2871 1.8167 -2.8302 0.7916 -3.4100 -10.5196 -4.3222 13.7988 -2.9792 -6.8633 7.7149 8.4213 -7.6744 -6.5786 -1.0331 61.5974 -0.0001 0.0001 106.4821 38.6121 -12.1303 -17.0567 -0.0000 0.0000 -0.0000 -0.0000 -0.0000 -0.0000 17.4260 -7.3659 2.7005 -21.4550 -9.4875 -59.5862 -0.0001 -0.0001 -92.0149 -8.2827 -8.2584 8.6913 -0.0000 -0.0000 0.0000 0.0000 -0.0000 0.0000 -39.0110 6.5462 -0.5948 67.4192 0.0000 0.0000 -2.1178 3.7776 -15.9437 -2.3253 0.0000 -0.0000 -15.7822 2.4578 13.4907 22.9208 0.0000 0.0000 -9.6928 -0.2459 3.5515 -4.3576 0.0000 -0.0000
 23.2935 -6.5360 24.2651 -6.5846 -4.6485 -65.6674 2.4414 8.8612 -1.3472 -0.5745 2.3510 0.5080 10.5364 1.7508 2.1947 1.7756 -2.8758 0.8347 -3.5815 -10.5358 -4.5834 13.8046 -2.9827 -6.8334 7.1952 9.4412 -7.5604 -6.5372 -1.0258 62.7150 -0.0001 0.0001 104.2532 37.7971 -11.0653 -17.2447 0.0000 0.0000 0.0000 -0.0000 -0.0000 0.0000 16.8311 -9.0309 1.8599 -21.3307 -9.7052 -61.0577 -0.0001 -0.0001 -89.6554 -9.2838 -8.6585 7.7853 -0.0000 0.0000 -0.0000 0.0000 -0.0000 0.0000 -39.5081 7.0303 -1.8835 64.8554 0.0000 0.0000 -2.2326 3.9428 -15.6981 -2.2467 0.0000 -0.0000 -15.2622 2.6942 13.8852 22.8970 0.0000 0.0000 -10.1956 -0.2879 3.3901 -4.3363 0.0000 -0.0000
 23.1632 -6.6880 24.2708 -6.6997 -4.7407 -65.9527 2.5074 8.9608 -1.3871 -0.5690 2.3566 0.5115 10.3600 1.7019 2.1347 1.7203 -2.9086 0.8762 -3.7039 -10.5511 -4.8491 13.8019 -2.9856 -6.8223 6.6889 10.3916 -7.4467 -6.4285 -0.9619 63.7377 -0.0000 0.0001 101.9630 37.3746 -10.2972 -17.3792 0.0000 0.0000 0.0000 0.0000 0.0000 0.0000 16.1840 -10.6205 0.9788 -21.0369 -9.9927 -62.4017 -0.0001 -0.0001 -87.1888 -8.1782 -8.8754 6.8227 0.0000 0.0000 0.0000 0.0000 0.0000 0.0000 -39.9348 7.5108 -3.0973 62.1240 0.0000 0.0000 -2.2769 4.0583 -15.2044 -2.1769 0.0000 -0.0000 -14.8067 2.9764 14.2518 22.9068 0.0000 0.0000 -10.6813 -0.3218 3.3015 -4.3194 0.0000 -0.0000
 23.0326 -6.8404 24.2716 -6.8547 -4.9030 -66.2665 2.5439 9.0749 -1.4251 -0.5626 2.3823 0.5208 10.1425 1.6757 2.0855 1.6545 -2.9186 0.9192 -3.7820 -10.5754 -5.1119 13.7935 -2.9811 -6.8233 6.1634 11.3151 -7.3007 -6.2044 -0.8766 64.6461 -0.0000 0.0001 99.6314 37.3913 -9.8787 -17.4794 0.0000 -0.0000 -0.0000 0.0000 -0.0000 0.0000 15.5170 -12.1377 0.0847 -20.6270 -10.3276 -63.6303 -0.0001 -0.0001 -84.6126 -5.3735 -8.9550 5.7210 -0.0000 -0.0000 -0.0000 0.0000 -0.0000 0.0000 -40.3132 8.0051 -4.2320 59.2499 0.0000 0.0000 -2.2383 4.0752 -14.4782 -2.1178 0.0000 -0.0000 -14.4209 3.3288 14.5946 22.9419 0.0000 0.0000 -11.1506 -0.3565 3.2844 -4.3022 0.0000 -0.0000
 22.9036 -6.9932 24.2663 -7.0496 -5.1919 -66.6036 2.5047 9.2310 -1.4631 -0.5691 2.4219 0.5372 9.8918 1.6818 2.0413 1.5824 -2.9242 0.9524 -3.8208 -10.5948 -5.3740 13.7820 -2.9707 -6.8214 5.6794 12.1921 -7.1233 -5.9508 -0.7180 65.4443 -0.0000 0.0001 97.2601 37.8161 -9.7750 -17.5724 -0.0000 0.0000 -0.0000 0.0000 0.0000 0.0000 14.8501 -13.5644 -0.8178 -20.1514 -10.6873 -64.7413 -0.0000 -0.0001 -81.9329 -1.5656 -8.9439 4.3386 0.0000 0.0000 -0.0000 0.0000 0.0000 -0.0000 -40.7246 8.5304 -5.2786 56.2676 0.0000 0.0000 -2.0991 3.9571 -13.5486 -2.0687 0.0000 -0.0000 -14.1662 3.7738 14.9315 23.0072 0.0000 0.0000 -11.6101 -0.4029 3.3266 -4.2805 0.0000 -0.0000
 22.7731 -7.1463 24.2563 -7.2974 -5.5200 -66.9532 2.4600 9.4110 -1.5037 -0.5795 2.4803 0.5554 9.6150 1.7120 1.9907 1.5121 -2.9290 0.9798 -3.8332 -10.6083 -5.6249 13.7698 -2.9576 -6.8192 5.1369 13.1357 -6.8823 -5.5170 -0.6169 66.1131 -0.0000 0.0001 94.8732 38.6318 -9.9792 -17.6548 -0.0000 0.0000 -0.0000 -0.0000 0.0000 -0.0000 14.1863 -14.9235 -1.7062 -19.6296 -10.9970 -65.7463 -0.0000 -0.0001 -79.1575 2.5476 -8.9034 2.5958 -0.0000 -0.0000 -0.0000 -0.0000 -0.0000 0.0000 -41.0679 9.0624 -6.2636 53.1771 0.0000 0.0000 -1.8509 3.6936 -12.4652 -2.0258 0.0000 -0.0000 -13.9382 4.2837 15.2777 23.0868 0.0000 0.0000 -12.0769 -0.4600 3.3931 -4.2533 0.0000 -0.0000
